<svg xmlns="http://www.w3.org/2000/svg" width="1280" height="720" viewBox="0 0 1280 720">
<defs><marker id="arrow" markerWidth="10" markerHeight="10" refX="8" refY="3" orient="auto" markerUnits="strokeWidth"><path d="M0,0 L0,6 L8,3 z" fill="#111"/></marker><style>
  .frame{fill:#fff;stroke:#111;stroke-width:2.2}
  .top{fill:#f8f8f8;stroke:#d9d9d9;stroke-width:1.4}
  .panel{fill:#fff;stroke:#111;stroke-width:1.7}
  .soft{fill:#f7f7f7;stroke:#d9d9d9;stroke-width:1.2}
  .thin{fill:#fff;stroke:#cfcfcf;stroke-width:1.2}
  .black{fill:#111;stroke:#111;stroke-width:1.5}
  .ink{fill:#111}
  .muted{fill:#666}
  .line{stroke:#111;stroke-width:1.8;fill:none;stroke-linecap:round;stroke-linejoin:round}
  .softline{stroke:#bdbdbd;stroke-width:1.4;fill:none;stroke-linecap:round;stroke-linejoin:round}
  .dash{stroke:#999;stroke-width:1.3;fill:none;stroke-dasharray:6 6}
  .title{font:700 27px -apple-system,BlinkMacSystemFont,"Segoe UI",Arial,sans-serif;fill:#111}
  .sub{font:500 13px -apple-system,BlinkMacSystemFont,"Segoe UI",Arial,sans-serif;fill:#666}
  .h{font:700 18px -apple-system,BlinkMacSystemFont,"Segoe UI",Arial,sans-serif;fill:#111}
  .m{font:650 15px -apple-system,BlinkMacSystemFont,"Segoe UI",Arial,sans-serif;fill:#111}
  .xs{font:600 12.5px -apple-system,BlinkMacSystemFont,"Segoe UI",Arial,sans-serif;fill:#666}
  .tiny{font:600 10.5px -apple-system,BlinkMacSystemFont,"Segoe UI",Arial,sans-serif;fill:#777}
  .white{font:700 12px -apple-system,BlinkMacSystemFont,"Segoe UI",Arial,sans-serif;fill:#fff}
</style></defs>
<rect width="1280" height="720" fill="#fff"/>
<rect x="32" y="32" width="1216" height="656" rx="24" class="frame"/>
<rect x="32" y="32" width="1216" height="70" rx="24" class="top"/>
<path d="M32 78 H1248" class="softline"/>
<circle cx="62" cy="66" r="7" fill="#111"/><circle cx="86" cy="66" r="7" fill="#8f8f8f"/><circle cx="110" cy="66" r="7" fill="#d0d0d0"/>
<text x="152" y="62" class="title">Waxis Enterprise Knowledge &amp; Domain AI</text><text x="152" y="84" class="sub">Architecture for permissioned RAG, GraphRAG-style domain context, and cited answers.</text>
<rect x="74" y="146" width="236" height="404" rx="22" class="soft"/><text x="106" y="186" class="h">Source Vault</text><rect x="106" y="224" width="132" height="28" rx="14.0" class="black"/><text x="172.0" y="242.0" class="white" text-anchor="middle">contracts</text><rect x="106" y="269" width="132" height="28" rx="14.0" class="thin"/><text x="172.0" y="287.0" class="xs" text-anchor="middle">SOPs</text><rect x="106" y="314" width="132" height="28" rx="14.0" class="thin"/><text x="172.0" y="332.0" class="xs" text-anchor="middle">product docs</text><rect x="106" y="359" width="132" height="28" rx="14.0" class="thin"/><text x="172.0" y="377.0" class="xs" text-anchor="middle">tickets</text><rect x="106" y="404" width="132" height="28" rx="14.0" class="thin"/><text x="172.0" y="422.0" class="xs" text-anchor="middle">glossary</text><rect x="106" y="449" width="132" height="28" rx="14.0" class="thin"/><text x="172.0" y="467.0" class="xs" text-anchor="middle">expert notes</text><rect x="388" y="126" width="460" height="444" rx="28" class="panel"/><text x="426" y="168" class="h">Retrieval + Domain Layer</text><rect x="426" y="210" width="158" height="84" rx="16" class="thin"/><text x="454" y="246" class="h">Parser</text><text x="454" y="270" class="tiny">chunk + classify</text><rect x="650" y="210" width="158" height="84" rx="16" class="thin"/><text x="678" y="246" class="h">Index</text><text x="678" y="270" class="tiny">hybrid + vector</text><rect x="426" y="348" width="158" height="84" rx="16" class="black"/><text x="505" y="384" class="white" text-anchor="middle">Permission</text><text x="505" y="408" class="white" text-anchor="middle">filter first</text><rect x="650" y="348" width="158" height="84" rx="16" class="thin"/><text x="678" y="384" class="h">Citation</text><text x="678" y="408" class="tiny">answer evidence</text><circle cx="616" cy="478" r="44" class="thin"/><text x="616" y="483" class="m" text-anchor="middle">Graph</text><path d="M584 252 L650 252" class="softline" marker-end="url(#arrow)"/><path d="M505 294 L505 348" class="softline" marker-end="url(#arrow)"/><path d="M729 294 L729 348" class="softline" marker-end="url(#arrow)"/><path d="M584 390 L650 390" class="softline" marker-end="url(#arrow)"/><path d="M584 432 L616 478" class="softline" marker-end="url(#arrow)"/><path d="M729 432 L616 478" class="softline" marker-end="url(#arrow)"/><path d="M310 250 C350 250 350 250 388 250" class="line" marker-end="url(#arrow)"/><path d="M310 365 C350 365 350 365 388 365" class="line" marker-end="url(#arrow)"/><path d="M310 478 C350 478 350 478 388 478" class="line" marker-end="url(#arrow)"/><rect x="928" y="146" width="244" height="404" rx="22" class="soft"/><text x="960" y="186" class="h">Knowledge Surfaces</text><rect x="960" y="226" width="142" height="28" rx="14.0" class="thin"/><text x="1031.0" y="244.0" class="xs" text-anchor="middle">employee search</text><rect x="960" y="272" width="142" height="28" rx="14.0" class="black"/><text x="1031.0" y="290.0" class="white" text-anchor="middle">agent API</text><rect x="960" y="318" width="142" height="28" rx="14.0" class="thin"/><text x="1031.0" y="336.0" class="xs" text-anchor="middle">support draft</text><rect x="960" y="364" width="142" height="28" rx="14.0" class="thin"/><text x="1031.0" y="382.0" class="xs" text-anchor="middle">deal desk</text><rect x="960" y="410" width="142" height="28" rx="14.0" class="thin"/><text x="1031.0" y="428.0" class="xs" text-anchor="middle">gap queue</text><rect x="960" y="456" width="142" height="28" rx="14.0" class="thin"/><text x="1031.0" y="474.0" class="xs" text-anchor="middle">eval suite</text><path d="M848 250 C888 250 888 250 928 250" class="line" marker-end="url(#arrow)"/><path d="M848 365 C888 365 888 365 928 365" class="line" marker-end="url(#arrow)"/><path d="M848 478 C888 478 888 478 928 478" class="line" marker-end="url(#arrow)"/><rect x="138" y="612" width="1004" height="42" rx="21" class="panel"/><text x="170" y="638" class="m">Governance: source ownership / RBAC / freshness checks / citation audit / no-answer policy / evaluation sets</text>
</svg>