<svg xmlns="http://www.w3.org/2000/svg" width="1280" height="720" viewBox="0 0 1280 720">
<defs><marker id="arrow" markerWidth="10" markerHeight="10" refX="8" refY="3" orient="auto" markerUnits="strokeWidth"><path d="M0,0 L0,6 L8,3 z" fill="#111"/></marker><style>
  .frame{fill:#fff;stroke:#111;stroke-width:2.2}
  .top{fill:#f8f8f8;stroke:#d9d9d9;stroke-width:1.4}
  .panel{fill:#fff;stroke:#111;stroke-width:1.7}
  .soft{fill:#f7f7f7;stroke:#d9d9d9;stroke-width:1.2}
  .thin{fill:#fff;stroke:#cfcfcf;stroke-width:1.2}
  .black{fill:#111;stroke:#111;stroke-width:1.5}
  .ink{fill:#111}
  .muted{fill:#666}
  .line{stroke:#111;stroke-width:1.8;fill:none;stroke-linecap:round;stroke-linejoin:round}
  .softline{stroke:#bdbdbd;stroke-width:1.4;fill:none;stroke-linecap:round;stroke-linejoin:round}
  .dash{stroke:#999;stroke-width:1.3;fill:none;stroke-dasharray:6 6}
  .title{font:700 27px -apple-system,BlinkMacSystemFont,"Segoe UI",Arial,sans-serif;fill:#111}
  .sub{font:500 13px -apple-system,BlinkMacSystemFont,"Segoe UI",Arial,sans-serif;fill:#666}
  .h{font:700 18px -apple-system,BlinkMacSystemFont,"Segoe UI",Arial,sans-serif;fill:#111}
  .m{font:650 15px -apple-system,BlinkMacSystemFont,"Segoe UI",Arial,sans-serif;fill:#111}
  .xs{font:600 12.5px -apple-system,BlinkMacSystemFont,"Segoe UI",Arial,sans-serif;fill:#666}
  .tiny{font:600 10.5px -apple-system,BlinkMacSystemFont,"Segoe UI",Arial,sans-serif;fill:#777}
  .white{font:700 12px -apple-system,BlinkMacSystemFont,"Segoe UI",Arial,sans-serif;fill:#fff}
</style></defs>
<rect width="1280" height="720" fill="#fff"/>
<rect x="32" y="32" width="1216" height="656" rx="24" class="frame"/>
<rect x="32" y="32" width="1216" height="70" rx="24" class="top"/>
<path d="M32 78 H1248" class="softline"/>
<circle cx="62" cy="66" r="7" fill="#111"/><circle cx="86" cy="66" r="7" fill="#8f8f8f"/><circle cx="110" cy="66" r="7" fill="#d0d0d0"/>
<text x="152" y="62" class="title">Waxis Enterprise Knowledge &amp; Domain AI</text><text x="152" y="84" class="sub">Permissioned answer workspace with citations, access control, evidence, and knowledge graph context.</text>
<rect x="76" y="130" width="1096" height="62" rx="20" class="soft"/><text x="110" y="168" class="m">Ask: Which onboarding policy applies to enterprise healthcare customers?</text><rect x="910" y="146" width="118" height="28" rx="14.0" class="black"/><text x="969.0" y="164.0" class="white" text-anchor="middle">access checked</text><rect x="1040" y="146" width="92" height="28" rx="14.0" class="thin"/><text x="1086.0" y="164.0" class="xs" text-anchor="middle">cite only</text><rect x="76" y="232" width="260" height="340" rx="20" class="panel"/><text x="108" y="270" class="h">Source Filters</text><rect x="108" y="306" width="158" height="26" rx="13.0" class="black"/><text x="187.0" y="323.0" class="white" text-anchor="middle">SOP v12</text><rect x="108" y="344" width="158" height="26" rx="13.0" class="thin"/><text x="187.0" y="361.0" class="xs" text-anchor="middle">Master contract</text><rect x="108" y="382" width="158" height="26" rx="13.0" class="black"/><text x="187.0" y="399.0" class="white" text-anchor="middle">Security addendum</text><rect x="108" y="420" width="158" height="26" rx="13.0" class="thin"/><text x="187.0" y="437.0" class="xs" text-anchor="middle">Product docs</text><rect x="108" y="458" width="158" height="26" rx="13.0" class="thin"/><text x="187.0" y="475.0" class="xs" text-anchor="middle">Support history</text><rect x="108" y="496" width="158" height="26" rx="13.0" class="thin"/><text x="187.0" y="513.0" class="xs" text-anchor="middle">Training manual</text><rect x="384" y="232" width="424" height="340" rx="20" class="panel"/><text x="416" y="270" class="h">Cited Answer Draft</text><rect x="416" y="306" width="328" height="10" rx="5" class="thin"/><rect x="416" y="336" width="286" height="10" rx="5" class="thin"/><rect x="416" y="366" width="344" height="10" rx="5" class="thin"/><rect x="416" y="396" width="250" height="10" rx="5" class="thin"/><rect x="416" y="442" width="92" height="26" rx="13.0" class="black"/><text x="462.0" y="459.0" class="white" text-anchor="middle">[1] SOP</text><rect x="522" y="442" width="118" height="26" rx="13.0" class="thin"/><text x="581.0" y="459.0" class="xs" text-anchor="middle">[2] Security</text><rect x="654" y="442" width="96" height="26" rx="13.0" class="thin"/><text x="702.0" y="459.0" class="xs" text-anchor="middle">[3] Contract</text><rect x="416" y="494" width="344" height="42" rx="14" class="soft"/><text x="436" y="520" class="tiny">No-answer boundary: missing regional exception data</text><rect x="856" y="232" width="316" height="340" rx="20" class="panel"/><text x="888" y="270" class="h">Knowledge Graph</text><path d="M954 352 L1060 318" class="softline"/><path d="M954 352 L1084 412" class="softline"/><path d="M954 352 L970 454" class="softline"/><path d="M1060 318 L1128 366" class="softline"/><path d="M1084 412 L1128 366" class="softline"/><circle cx="954" cy="352" r="34" class="black"/><text x="954" y="357" class="white" text-anchor="middle">Policy</text><circle cx="1060" cy="318" r="24" class="thin"/><text x="1060" y="323" class="tiny" text-anchor="middle">Contract</text><circle cx="1084" cy="412" r="28" class="thin"/><text x="1084" y="417" class="tiny" text-anchor="middle">Region</text><circle cx="970" cy="454" r="22" class="thin"/><text x="970" y="459" class="tiny" text-anchor="middle">Role</text><circle cx="1128" cy="366" r="20" class="thin"/><text x="1128" y="371" class="tiny" text-anchor="middle">Risk</text><rect x="76" y="608" width="1096" height="40" rx="20" class="soft"/><text x="106" y="634" class="m">Evidence drawer records source version, chunk ID, owner metadata, access group, freshness, and eval feedback.</text><path d="M336 402 C360 402 360 402 384 402" class="line" marker-end="url(#arrow)"/><path d="M808 402 C832 402 832 402 856 402" class="line" marker-end="url(#arrow)"/>
</svg>